# xmcd CD database file
#
# Track frame offsets:
#	150
#	11171
#	21431
#	40537
#	54815
#	67125
#	82440
#	97526
#
# Disc length: 1522 seconds
#
# Revision: 0
# Processed by: cddbd v1.5.2PL0 Copyright (c) Steve Scherf et al.
# Submitted via: CDex 1.60beta1-cs1
#
DISCID=5e05f008
DTITLE=Joel Zelnik - Move
DYEAR=1900
DGENRE=Jazz
TTITLE0=Move
TTITLE1=Walk Right In
TTITLE2=A Minor Thought
TTITLE3=Blues Web
TTITLE4=Tune Up
TTITLE5=Maybe September
TTITLE6=Will You Be Mine
TTITLE7=Cultivation
EXTD=
EXTT0=
EXTT1=
EXTT2=
EXTT3=
EXTT4=
EXTT5=
EXTT6=
EXTT7=
PLAYORDER=
